REM DIRINDEX 1\2,1\3,1\4,1\5\6,1\5\7,1\8
REM DIRNAME cjc115,folder01,folder02,folder03,folder04,folder05,folder06,folder07
TITLE ""
FILE "065 【065】Unit4 (0733 apparently_0744 reluctance).mp3" MP3
  TRACK 01 AUDIO
    TITLE "0:"
    INDEX 01 00:00:00
  TRACK 02 AUDIO
    TITLE "2:cjc115_2542"
    INDEX 01 00:00:01
  TRACK 03 AUDIO
    TITLE "0:"
    INDEX 01 00:01:17
  TRACK 04 AUDIO
    TITLE "3:cjc115_2543"
    INDEX 01 00:01:24
  TRACK 05 AUDIO
    TITLE "0:"
    INDEX 01 00:03:72
  TRACK 06 AUDIO
    TITLE "4:cjc115_2544"
    INDEX 01 00:04:07
  TRACK 07 AUDIO
    TITLE "0:"
    INDEX 01 00:07:23
  TRACK 08 AUDIO
    TITLE "2:cjc115_2545"
    INDEX 01 00:08:32
  TRACK 09 AUDIO
    TITLE "0:"
    INDEX 01 00:10:06
  TRACK 10 AUDIO
    TITLE "3:cjc115_2546"
    INDEX 01 00:10:18
  TRACK 11 AUDIO
    TITLE "0:"
    INDEX 01 00:14:35
  TRACK 12 AUDIO
    TITLE "4:cjc115_2547"
    INDEX 01 00:14:45
  TRACK 13 AUDIO
    TITLE "0:"
    INDEX 01 00:19:65
  TRACK 14 AUDIO
    TITLE "2:cjc115_2548"
    INDEX 01 00:21:02
  TRACK 15 AUDIO
    TITLE "0:"
    INDEX 01 00:22:11
  TRACK 16 AUDIO
    TITLE "3:cjc115_2549"
    INDEX 01 00:22:21
  TRACK 17 AUDIO
    TITLE "0:"
    INDEX 01 00:24:53
  TRACK 18 AUDIO
    TITLE "4:cjc115_2550"
    INDEX 01 00:24:63
  TRACK 19 AUDIO
    TITLE "0:"
    INDEX 01 00:28:12
  TRACK 20 AUDIO
    TITLE "2:cjc115_2551"
    INDEX 01 00:29:17
  TRACK 21 AUDIO
    TITLE "0:"
    INDEX 01 00:30:20
  TRACK 22 AUDIO
    TITLE "3:cjc115_2552"
    INDEX 01 00:30:32
  TRACK 23 AUDIO
    TITLE "0:"
    INDEX 01 00:33:21
  TRACK 24 AUDIO
    TITLE "4:cjc115_2553"
    INDEX 01 00:33:30
  TRACK 25 AUDIO
    TITLE "0:"
    INDEX 01 00:36:21
  TRACK 26 AUDIO
    TITLE "2:cjc115_2554"
    INDEX 01 00:37:30
  TRACK 27 AUDIO
    TITLE "0:"
    INDEX 01 00:38:47
  TRACK 28 AUDIO
    TITLE "3:cjc115_2555"
    INDEX 01 00:38:55
  TRACK 29 AUDIO
    TITLE "0:"
    INDEX 01 00:40:60
  TRACK 30 AUDIO
    TITLE "4:cjc115_2556"
    INDEX 01 00:40:72
  TRACK 31 AUDIO
    TITLE "0:"
    INDEX 01 00:45:59
  TRACK 32 AUDIO
    TITLE "2:cjc115_2557"
    INDEX 01 00:46:68
  TRACK 33 AUDIO
    TITLE "0:"
    INDEX 01 00:48:38
  TRACK 34 AUDIO
    TITLE "3:cjc115_2558"
    INDEX 01 00:48:49
  TRACK 35 AUDIO
    TITLE "0:"
    INDEX 01 00:49:59
  TRACK 36 AUDIO
    TITLE "4:cjc115_2559"
    INDEX 01 00:49:72
  TRACK 37 AUDIO
    TITLE "0:"
    INDEX 01 00:54:44
  TRACK 38 AUDIO
    TITLE "2:cjc115_2560"
    INDEX 01 00:55:53
  TRACK 39 AUDIO
    TITLE "0:"
    INDEX 01 00:57:03
  TRACK 40 AUDIO
    TITLE "3:cjc115_2561"
    INDEX 01 00:57:15
  TRACK 41 AUDIO
    TITLE "0:"
    INDEX 01 00:58:42
  TRACK 42 AUDIO
    TITLE "4:cjc115_2562"
    INDEX 01 00:58:50
  TRACK 43 AUDIO
    TITLE "0:"
    INDEX 01 01:01:74
  TRACK 44 AUDIO
    TITLE "2:cjc115_2563"
    INDEX 01 01:03:20
  TRACK 45 AUDIO
    TITLE "0:"
    INDEX 01 01:04:35
  TRACK 46 AUDIO
    TITLE "3:cjc115_2564"
    INDEX 01 01:04:45
  TRACK 47 AUDIO
    TITLE "0:"
    INDEX 01 01:07:17
  TRACK 48 AUDIO
    TITLE "4:cjc115_2565"
    INDEX 01 01:07:29
  TRACK 49 AUDIO
    TITLE "0:"
    INDEX 01 01:10:24
  TRACK 50 AUDIO
    TITLE "2:cjc115_2566"
    INDEX 01 01:11:31
  TRACK 51 AUDIO
    TITLE "0:"
    INDEX 01 01:12:50
  TRACK 52 AUDIO
    TITLE "3:cjc115_2567"
    INDEX 01 01:12:60
  TRACK 53 AUDIO
    TITLE "0:"
    INDEX 01 01:15:66
  TRACK 54 AUDIO
    TITLE "4:cjc115_2568"
    INDEX 01 01:16:01
  TRACK 55 AUDIO
    TITLE "0:"
    INDEX 01 01:20:00
  TRACK 56 AUDIO
    TITLE "2:cjc115_2569"
    INDEX 01 01:21:10
  TRACK 57 AUDIO
    TITLE "0:"
    INDEX 01 01:22:50
  TRACK 58 AUDIO
    TITLE "3:cjc115_2570"
    INDEX 01 01:22:62
  TRACK 59 AUDIO
    TITLE "0:"
    INDEX 01 01:24:00
  TRACK 60 AUDIO
    TITLE "4:cjc115_2571"
    INDEX 01 01:24:12
  TRACK 61 AUDIO
    TITLE "0:"
    INDEX 01 01:29:05
  TRACK 62 AUDIO
    TITLE "2:cjc115_2572"
    INDEX 01 01:30:11
  TRACK 63 AUDIO
    TITLE "0:"
    INDEX 01 01:31:18
  TRACK 64 AUDIO
    TITLE "3:cjc115_2573"
    INDEX 01 01:31:30
  TRACK 65 AUDIO
    TITLE "0:"
    INDEX 01 01:33:56
  TRACK 66 AUDIO
    TITLE "4:cjc115_2574"
    INDEX 01 01:33:66
  TRACK 67 AUDIO
    TITLE "0:"
    INDEX 01 01:36:62
  TRACK 68 AUDIO
    TITLE "2:cjc115_2575"
    INDEX 01 01:38:12
  TRACK 69 AUDIO
    TITLE "0:"
    INDEX 01 01:39:41
  TRACK 70 AUDIO
    TITLE "3:cjc115_2576"
    INDEX 01 01:39:55
  TRACK 71 AUDIO
    TITLE "0:"
    INDEX 01 01:42:31
  TRACK 72 AUDIO
    TITLE "4:cjc115_2577"
    INDEX 01 01:42:41
  TRACK 73 AUDIO
    TITLE "0:"
    INDEX 01 01:46:72
